<svg xmlns="http://www.w3.org/2000/svg" viewBox="0 0 480 220" role="img" aria-label="Bodu.Globalization.Calendar.MiddleEast — embedded notable-date resource pack for Middle East">
  <title>Bodu.Globalization.Calendar.MiddleEast</title>
  <defs>
    <linearGradient id="calmiddleeast-bg" x1="0" y1="0" x2="1" y2="1">
      <stop offset="0" stop-color="#0F172A"/>
      <stop offset="1" stop-color="#1E293B"/>
    </linearGradient>
  </defs>
  <rect width="480" height="220" rx="12" fill="url(#calmiddleeast-bg)"/>

  <!-- Left panel -->
  <g transform="translate(28 30)" font-family="'Segoe UI','Helvetica Neue',Arial,sans-serif" font-size="11">
    <rect width="150" height="160" rx="8" fill="#1E293B" stroke="#334155" stroke-width="1.2"/>
    <rect width="150" height="22" rx="8" fill="#A78BFA"/>
    <rect y="14" width="150" height="8" fill="#A78BFA"/>
    <text x="75" y="16" fill="#241A47" text-anchor="middle" font-weight="700" font-size="11">Middle East</text>

    <g stroke="#334155" stroke-width="1">
      <rect x="13" y="38" width="28" height="22" rx="3" fill="#0F172A"/>
      <rect x="46" y="38" width="28" height="22" rx="3" fill="#0F172A"/>
      <rect x="79" y="38" width="28" height="22" rx="3" fill="#A78BFA"/>
      <rect x="112" y="38" width="28" height="22" rx="3" fill="#0F172A"/>
      <rect x="13" y="68" width="28" height="22" rx="3" fill="#0F172A"/>
      <rect x="46" y="68" width="28" height="22" rx="3" fill="#0F172A"/>
      <rect x="79" y="68" width="28" height="22" rx="3" fill="#A78BFA"/>
      <rect x="112" y="68" width="28" height="22" rx="3" fill="#0F172A"/>
      <rect x="13" y="98" width="28" height="22" rx="3" fill="#0F172A"/>
      <rect x="46" y="98" width="28" height="22" rx="3" fill="#A78BFA"/>
      <rect x="79" y="98" width="28" height="22" rx="3" fill="#0F172A"/>
      <rect x="112" y="98" width="28" height="22" rx="3" fill="#0F172A"/>
    </g>
    <text x="12" y="148" fill="#94A3B8" font-family="'Consolas','Menlo',monospace" font-size="9">Umm al-Qura + Hebrew rules</text>
  </g>

  <!-- Bidirectional pipeline arrows -->
  <g transform="translate(186 80)" fill="none" stroke="#A78BFA" stroke-width="2" stroke-linecap="round">
    <line x1="0" y1="0" x2="104" y2="0"/>
    <polygon points="104,0 96,-4 96,4" fill="#A78BFA" stroke="none"/>
    <line x1="104" y1="36" x2="0" y2="36"/>
    <polygon points="0,36 8,32 8,40" fill="#A78BFA" stroke="none"/>
  </g>
  <g transform="translate(186 80)" fill="#A78BFA" font-family="'Consolas','Menlo',monospace" font-size="10" text-anchor="middle">
    <text x="52" y="-6">resolve</text>
    <text x="52" y="56">import</text>
  </g>

  <!-- Right panel -->
  <g transform="translate(310 30)" font-family="'Segoe UI','Helvetica Neue',Arial,sans-serif" font-size="11">
    <rect width="142" height="160" rx="8" fill="#1E293B" stroke="#334155" stroke-width="1.2"/>
    <rect width="142" height="22" rx="8" fill="#3B82F6"/>
    <rect y="14" width="142" height="8" fill="#3B82F6"/>
    <text x="71" y="16" fill="#F8FAFC" text-anchor="middle" font-weight="700" font-size="11">Territories</text>

    <rect x="12" y="34" width="28" height="16" rx="8" fill="#0F172A" stroke="#334155" stroke-width="1"/>
    <text x="26" y="46" fill="#A78BFA" font-family="'Consolas','Menlo',monospace" font-size="9.5" text-anchor="middle">AE</text>
    <rect x="43" y="34" width="28" height="16" rx="8" fill="#0F172A" stroke="#334155" stroke-width="1"/>
    <text x="57" y="46" fill="#A78BFA" font-family="'Consolas','Menlo',monospace" font-size="9.5" text-anchor="middle">SA</text>
    <rect x="74" y="34" width="28" height="16" rx="8" fill="#0F172A" stroke="#334155" stroke-width="1"/>
    <text x="88" y="46" fill="#A78BFA" font-family="'Consolas','Menlo',monospace" font-size="9.5" text-anchor="middle">IL</text>
    <rect x="105" y="34" width="28" height="16" rx="8" fill="#0F172A" stroke="#334155" stroke-width="1"/>
    <text x="119" y="46" fill="#A78BFA" font-family="'Consolas','Menlo',monospace" font-size="9.5" text-anchor="middle">TR</text>
    <rect x="12" y="58" width="28" height="16" rx="8" fill="#0F172A" stroke="#334155" stroke-width="1"/>
    <text x="26" y="70" fill="#A78BFA" font-family="'Consolas','Menlo',monospace" font-size="9.5" text-anchor="middle">QA</text>
    <rect x="43" y="58" width="28" height="16" rx="8" fill="#0F172A" stroke="#334155" stroke-width="1"/>
    <text x="57" y="70" fill="#A78BFA" font-family="'Consolas','Menlo',monospace" font-size="9.5" text-anchor="middle">JO</text>
    <text x="12" y="150" fill="#94A3B8" font-family="'Consolas','Menlo',monospace" font-size="9">MiddleEastCalendarData</text>
  </g>

  <!-- Bottom caption -->
  <g fill="#94A3B8" font-family="'Consolas','Menlo',monospace" font-size="10">
    <text x="240" y="206" text-anchor="middle">6 country packs · Hijri · Hebrew calendars</text>
  </g>
</svg>
